<svg xmlns="http://www.w3.org/2000/svg" width="138" height="28" viewBox="0 0 138 28" fill="none">
<g id="SOAX svg" clip-path="url(#clip0_4850_437)">
<g id="Clip path group">
<mask id="mask0_4850_437" style="mask-type:luminance" maskUnits="userSpaceOnUse" x="0" y="0" width="138" height="28">
<g id="clip0_776_8800">
<path id="Vector" d="M137.705 0H0V27.7725H137.705V0Z" fill="white"/>
</g>
</mask>
<g mask="url(#mask0_4850_437)">
<g id="Group">
<path id="Vector_2" fill-rule="evenodd" clip-rule="evenodd" d="M136.407 0.722704L126.131 13.2152L137.705 27.0498H127.753L120.866 17.9988L113.871 27.0498H103.955L115.493 13.2152L105.253 0.722704H115.169L120.83 8.74126L126.491 0.722704H136.407ZM77.8489 18.7559C77.8489 16.7942 79.147 14.7638 84.5917 14.5917C87.4042 14.695 90.7937 15.28 92.9211 16.1404C92.1637 19.1 89.3514 22.6102 83.7263 22.9201C79.2551 22.6791 77.8489 20.6831 77.8489 18.7559ZM86.5749 0C86.3225 0 86.034 0 85.7816 0C85.6375 0 85.4571 0 85.3128 0C85.2048 0 85.0966 0 84.9884 0C73.8825 0 71.1422 5.16216 70.5652 9.29188H78.7504C79.0027 6.91728 80.8055 4.71477 85.6014 4.47386C90.9018 4.68036 93.1014 7.15821 93.1375 10.9782V11.5632C90.1086 10.8061 86.9715 10.4276 83.7985 10.3932C83.546 10.3932 83.2937 10.3932 83.0413 10.3932C82.897 10.3932 82.7167 10.3932 82.5725 10.3932C82.4643 10.3932 82.3561 10.3932 82.2479 10.3932C72.4762 10.3932 69.5555 14.4884 69.5555 18.9623C69.5555 22.8856 71.719 27.7381 81.2023 27.7381C81.3464 27.7381 81.5268 27.7381 81.6711 27.7381C81.7071 27.7381 81.7793 27.7381 81.8152 27.7381C82.1398 27.7381 82.4282 27.7381 82.7528 27.7381C87.1156 27.7381 90.7937 26.1549 93.1734 23.4362V23.5739V27.0153H101.503V12.4236C101.503 5.67837 98.9788 0 86.5749 0ZM40.6012 13.8002V13.9378C40.6012 19.6851 44.0988 22.4381 49.3632 22.6791C54.6277 22.4381 58.1252 19.6851 58.1252 13.9378V13.8002C58.1252 8.08739 54.6277 5.36866 49.3632 5.12775C44.0988 5.36866 40.6012 8.08739 40.6012 13.8002ZM50.1564 0C60.3248 0 66.5268 4.95568 66.5268 13.6969V14.0067C66.5268 22.7824 60.3248 27.7381 50.1564 27.7381C50.0484 27.7381 49.9401 27.7381 49.8319 27.7381C49.6878 27.7381 49.5075 27.7381 49.3632 27.7381C49.1108 27.7381 48.8585 27.7381 48.5699 27.7381C38.4376 27.7381 32.1997 22.7824 32.1997 14.0067V13.6969C32.1997 4.95568 38.4016 0 48.5699 0C48.6781 0 48.7862 0 48.8944 0C49.0387 0 49.219 0 49.3632 0C49.6157 0 49.904 0 50.1564 0ZM9.15869 7.67442C9.15869 10.1178 11.4664 10.8061 16.6588 11.3912C26.1419 12.3203 30.0001 14.695 30.0001 19.5131C30.0001 24.7439 25.4569 27.7725 16.0818 27.7725H14.4952C4.25482 27.7725 0 23.6083 0 18.4118H8.0409C8.29331 21.509 11.1779 22.8856 15.5048 23.0232C19.9759 22.8856 21.5265 21.6812 21.5265 19.8572C21.5265 17.4481 19.1468 16.7253 13.3775 15.9683C4.65146 14.867 0.685099 12.8022 0.685099 7.8809C0.685099 3.64793 3.75001 0 13.5217 0C13.6299 0 13.7741 0 13.8823 0C13.9905 0 14.1347 0 14.2428 0C14.5313 0 14.7837 0 15.0722 0C25.2767 0 29.351 4.40504 29.4233 8.60359H21.166C20.9136 6.53873 18.678 4.92127 14.0987 4.74918C10.4928 4.88684 9.15869 6.02252 9.15869 7.67442Z" fill="#101828"/>
</g>
</g>
</g>
</g>
<defs>
<clipPath id="clip0_4850_437">
<rect width="137.705" height="28" fill="white"/>
</clipPath>
</defs>
</svg>