<svg width="184" height="22" viewBox="0 0 184 22" fill="currentColor" xmlns="http://www.w3.org/2000/svg"
    aria-labelledby="logoTitle logoDesc" role="img">
    <title id="logoTitle">TheoremOne Homepage</title>
    <desc id="logoDesc">TheoremOne's logo that will take you to the homepage.</desc>
    <path
        d="M0.398825 1.43302C0.132982 1.43302 6.10352e-05 1.4861 6.10352e-05 1.85763V6.34255C6.10352e-05 6.55486 0.159566 6.66101 0.319072 6.66101C0.505162 6.66101 0.717836 6.52832 0.717836 6.31601C0.717836 4.67066 2.1268 2.49454 4.51938 2.49454H6.96513V12.5259C6.96513 16.1881 6.8588 18.0723 6.80563 18.8154C6.67271 20.3811 5.98152 21.0181 3.88136 21.0181C3.56235 21.0181 3.40284 21.2304 3.40284 21.4161C3.40284 21.5754 3.53577 21.7346 3.80161 21.7346H13.3188C13.5846 21.7346 13.7175 21.5754 13.7175 21.4161C13.7175 21.2304 13.558 21.0181 13.2124 21.0181C11.2718 21.0181 10.4477 20.4077 10.2616 18.8154C10.1818 18.0723 10.1021 16.1351 10.1021 12.5524V2.49454H15.6848C17.2267 2.49454 17.4127 3.18453 17.4127 5.94448V14.4632C17.4127 16.2412 17.3064 18.2581 17.2532 19.0012C17.1203 20.5669 16.695 21.0446 15.2062 21.0446C14.8872 21.0446 14.7277 21.2304 14.7277 21.4161C14.7277 21.5754 14.8607 21.7346 15.1265 21.7346H22.4903C22.7562 21.7346 22.8891 21.5754 22.8891 21.4161C22.8891 21.2304 22.7296 21.0446 22.4106 21.0446C20.8421 21.0446 20.6826 20.5935 20.4699 19.0012C20.3636 18.2581 20.337 16.2412 20.337 14.4632V9.8721C22.2245 8.38598 23.2879 7.40407 24.4841 7.40407C25.8134 7.40407 26.6375 8.27983 26.6375 13.8528C26.6375 20.0892 26.159 21.0446 24.5905 21.0446C24.2715 21.0446 24.112 21.2304 24.112 21.4161C24.112 21.5754 24.2449 21.7346 24.5107 21.7346H31.7151C31.9809 21.7346 32.1138 21.5754 32.1138 21.4161C32.1138 21.2304 31.9543 21.0446 31.6353 21.0446C30.1998 21.0446 29.6947 20.5935 29.6947 19.0012V9.52711C29.6947 7.24484 28.392 5.54641 26.1855 5.54641C24.2715 5.54641 22.8891 6.66101 21.1877 8.09406L20.337 8.81059V0.66342C20.337 0.159199 20.1243 -3.05176e-05 19.8053 -3.05176e-05C18.9812 -3.05176e-05 18.7685 1.43302 15.605 1.43302H0.398825Z"
        fill="currentColor"></path>
    <path
        d="M45.0963 17.462C45.0963 17.2762 45.0431 17.1435 44.8836 17.1435C44.7773 17.1435 44.6709 17.1966 44.5912 17.3558C43.6076 19.3992 42.3581 19.9565 40.5504 19.9565C37.6261 19.9565 35.7918 17.0639 35.7918 12.0217H43.4746C44.6178 12.0217 45.0963 11.6767 45.0963 10.7213C45.0963 6.74062 42.1986 5.54641 39.9921 5.54641C35.1006 5.54641 32.6814 9.34134 32.6814 14.2509C32.6814 19.4523 35.4728 22 39.4338 22C43.5012 22 45.0963 19.1073 45.0963 17.462ZM39.4604 6.39563C41.0023 6.39563 41.7733 7.5633 41.7733 10.0048C41.7733 10.5886 41.6138 10.9336 40.7365 10.9867L35.845 11.3317C36.164 8.73097 37.2273 6.39563 39.4604 6.39563Z"
        fill="currentColor"></path>
    <path
        d="M53.0194 22C57.3792 22 60.5959 19.3992 60.5959 13.2955C60.5959 8.43905 58.1236 5.54641 53.9233 5.54641C49.5635 5.54641 46.3734 8.30636 46.3734 14.4101C46.3734 19.2666 48.8191 22 53.0194 22ZM53.7372 21.0711C50.8395 21.0711 49.6166 17.807 49.6166 13.4547C49.6166 9.4475 50.6268 6.4487 53.365 6.4487C56.2095 6.4487 57.3261 9.8721 57.3261 14.2243C57.3261 18.2316 56.502 21.0711 53.7372 21.0711Z"
        fill="currentColor"></path>
    <path
        d="M66.876 10.0579C66.876 7.82868 66.69 5.86487 65.6798 5.86487C65.2544 5.86487 62.144 6.31601 61.0541 6.60793C60.7617 6.68754 60.6553 6.84677 60.6553 6.97946C60.6553 7.13869 60.7882 7.27138 61.0541 7.27138H61.6921C63.8986 7.27138 64.0581 10.0048 64.0581 13.322V14.4632C64.0581 16.2412 63.9518 18.0723 63.8986 18.8154C63.7657 20.3811 63.234 21.0446 61.8516 21.0446C61.5326 21.0446 61.3731 21.2304 61.3731 21.4161C61.3731 21.5754 61.506 21.7346 61.7719 21.7346H70.0662C70.332 21.7346 70.4649 21.5754 70.4649 21.4161C70.4649 21.2304 70.3054 21.0446 69.9864 21.0446C67.8065 21.0446 67.1685 20.4077 66.9558 18.8154C66.876 18.0723 66.7963 16.9312 66.7963 13.7201C66.7963 10.5886 68.0457 7.96137 69.5345 7.96137C70.6776 7.96137 70.7042 9.18212 70.7042 9.6598C71.5017 9.6598 73.0968 9.31481 73.0968 7.69599C73.0968 6.20986 72.1663 5.54641 70.8105 5.54641C69.375 5.54641 67.7267 6.39563 66.876 10.0579Z"
        fill="currentColor"></path>
    <path
        d="M85.2374 17.462C85.2374 17.2762 85.1843 17.1435 85.0248 17.1435C84.9184 17.1435 84.8121 17.1966 84.7323 17.3558C83.7487 19.3992 82.4993 19.9565 80.6915 19.9565C77.7673 19.9565 75.933 17.0639 75.933 12.0217H83.6158C84.7589 12.0217 85.2374 11.6767 85.2374 10.7213C85.2374 6.74062 82.3398 5.54641 80.1333 5.54641C75.2418 5.54641 72.8226 9.34134 72.8226 14.2509C72.8226 19.4523 75.614 22 79.575 22C83.6424 22 85.2374 19.1073 85.2374 17.462ZM79.6016 6.39563C81.1435 6.39563 81.9144 7.5633 81.9144 10.0048C81.9144 10.5886 81.7549 10.9336 80.8776 10.9867L75.9861 11.3317C76.3051 8.73097 77.3685 6.39563 79.6016 6.39563Z"
        fill="currentColor"></path>
    <path
        d="M100.312 8.83712C100.072 6.92639 98.9294 5.54641 96.9621 5.54641C95.0481 5.54641 93.9847 6.66101 92.2833 8.09406L91.4858 8.75751C91.5124 8.20021 91.5124 7.48369 91.5124 7.16523C91.5124 6.2364 91.087 5.86487 90.5022 5.86487C89.5717 5.86487 85.7436 6.47524 85.7436 7.006C85.7436 7.13869 85.8233 7.27138 86.0892 7.27138H86.8335C88.5349 7.27138 88.5615 9.8721 88.5615 13.1894V14.4632C88.5615 19.6646 88.5615 21.0181 86.355 21.0446C86.036 21.0446 85.8765 21.2304 85.8765 21.4161C85.8765 21.5754 86.0094 21.7346 86.2753 21.7346H93.5859C93.8518 21.7346 93.9847 21.5754 93.9847 21.4161C93.9847 21.2304 93.8252 21.0446 93.4796 21.0446C91.8314 21.0446 91.7782 20.4608 91.5655 18.8685C91.4592 18.1254 91.406 16.2412 91.406 14.4632V13.322C91.406 12.0482 91.406 10.7479 91.4326 9.8721C93.3201 8.38598 94.1974 7.51022 95.3139 7.51022C96.5368 7.51022 97.3077 8.27983 97.3077 13.8528C97.3077 20.0892 96.8292 21.0446 95.2607 21.0446C94.9417 21.0446 94.7822 21.2304 94.7822 21.4161C94.7822 21.5754 94.9152 21.7346 95.181 21.7346H102.385C102.651 21.7346 102.784 21.5754 102.784 21.4161C102.784 21.2304 102.625 21.0446 102.306 21.0446C100.87 21.0446 100.365 20.5935 100.365 19.0012V9.8721C102.252 8.38598 103.13 7.51022 104.246 7.51022C105.469 7.51022 106.24 8.27983 106.24 13.8528C106.24 20.0892 105.762 21.0446 104.193 21.0446C103.874 21.0446 103.715 21.2304 103.715 21.4161C103.715 21.5754 103.847 21.7346 104.113 21.7346H111.318C111.583 21.7346 111.716 21.5754 111.716 21.4161C111.716 21.2304 111.557 21.0446 111.238 21.0446C109.802 21.0446 109.297 20.5935 109.297 19.0012V9.52711C109.297 7.24484 108.101 5.54641 105.894 5.54641C103.98 5.54641 102.944 6.68755 101.216 8.09406L100.312 8.83712Z"
        fill="currentColor"></path>
    <path
        d="M112.013 11.544C112.013 18.205 115.788 22 121.769 22C127.724 22 131.499 18.2316 131.499 11.544C131.499 4.85642 127.724 1.06149 121.769 1.06149C115.788 1.06149 112.013 4.96257 112.013 11.544ZM121.636 2.06993C126.315 2.06993 127.777 6.66101 127.777 11.7563C127.777 16.5331 126.341 20.9915 121.689 20.9915C117.09 20.9915 115.655 16.2678 115.655 11.3317C115.655 6.68754 117.037 2.06993 121.636 2.06993Z"
        fill="currentColor"></path>
    <path
        d="M137.306 8.75751C137.332 8.20021 137.332 7.48369 137.332 7.16523C137.332 6.2364 136.907 5.86487 136.322 5.86487C135.392 5.86487 132.022 6.47524 132.022 7.006C132.022 7.13869 132.102 7.27138 132.368 7.27138H132.654C134.355 7.27138 134.382 9.8721 134.382 13.1894V14.4632C134.382 19.6646 134.382 21.0181 132.175 21.0446C131.856 21.0446 131.697 21.2304 131.697 21.4161C131.697 21.5754 131.829 21.7346 132.095 21.7346H139.406C139.672 21.7346 139.805 21.5754 139.805 21.4161C139.805 21.2304 139.645 21.0446 139.3 21.0446C137.651 21.0446 137.598 20.4608 137.386 18.8685C137.279 18.1254 137.226 16.2412 137.226 14.4632V13.322C137.226 12.0482 137.226 10.7479 137.253 9.8721C139.14 8.38598 140.204 7.40407 141.4 7.40407C142.729 7.40407 143.553 8.27983 143.553 13.8528C143.553 20.0892 143.075 21.0446 141.506 21.0446C141.187 21.0446 141.028 21.2304 141.028 21.4161C141.028 21.5754 141.161 21.7346 141.426 21.7346H148.631C148.897 21.7346 149.029 21.5754 149.029 21.4161C149.029 21.2304 148.87 21.0446 148.551 21.0446C147.115 21.0446 146.61 20.5935 146.61 19.0012V9.52711C146.61 7.24484 145.308 5.54641 143.101 5.54641C141.187 5.54641 139.805 6.66101 138.103 8.09406L137.306 8.75751Z"
        fill="currentColor"></path>
    <path
        d="M161.333 17.462C161.333 17.2762 161.28 17.1435 161.121 17.1435C161.014 17.1435 160.908 17.1966 160.828 17.3558C159.845 19.3992 158.595 19.9565 156.788 19.9565C153.863 19.9565 152.029 17.0639 152.029 12.0217H159.712C160.855 12.0217 161.333 11.6767 161.333 10.7213C161.333 6.74062 158.436 5.54641 156.229 5.54641C151.338 5.54641 148.919 9.34134 148.919 14.2509C148.919 19.4523 151.71 22 155.671 22C159.738 22 161.333 19.1073 161.333 17.462ZM155.698 6.39563C157.239 6.39563 158.01 7.5633 158.01 10.0048C158.01 10.5886 157.851 10.9336 156.974 10.9867L152.082 11.3317C152.401 8.73097 153.464 6.39563 155.698 6.39563Z"
        fill="currentColor"></path>
    <path fill-rule="evenodd" clip-rule="evenodd"
        d="M180.583 8.25002H169.583V19.25H180.583V8.25002ZM166.833 5.50002V22H183.333V5.50002H166.833Z"
        fill="currentColor"></path>
</svg>